<svg id="Component_398_34" data-name="Component 398 – 34" xmlns="http://www.w3.org/2000/svg" width="24" height="24" viewBox="0 0 24 24">
  <rect id="Rectangle_237" data-name="Rectangle 237" width="24" height="24" fill="none"/>
  <path id="Exclusion_3" data-name="Exclusion 3" d="M9,18a9,9,0,1,1,9-9A9.01,9.01,0,0,1,9,18ZM5.132,4,5.026,4A2.188,2.188,0,0,0,3,6.233V10.7l0,.112a2.175,2.175,0,0,0,2.129,2.121h3.2l.12,0a1.988,1.988,0,0,1,1.368.67l.377.394.377-.394.095-.094a1.946,1.946,0,0,1,1.394-.58h.533l.106,0a2.187,2.187,0,0,0,2.025-2.23V6.233l0-.111A2.177,2.177,0,0,0,12.593,4Zm5.062,8.471h0a2.943,2.943,0,0,0-1.864-.655h-3.2l-.079,0A1.1,1.1,0,0,1,4.065,10.7V6.233l0-.083A1.091,1.091,0,0,1,5.132,5.116h7.461l.079,0a1.1,1.1,0,0,1,.986,1.113V10.7l0,.084a1.092,1.092,0,0,1-1.063,1.033H12.06l-.1,0-.149.008a2.943,2.943,0,0,0-1.618.645ZM5.665,9.024V10.14h6.395V9.024Zm0-2.233V7.907h6.395V6.791Z" transform="translate(3 3)" fill="#0062b9"/>
</svg>
